<?xml version="1.0" encoding="utf-8"?>
<!-- Generator: Adobe Illustrator 23.0.1, SVG Export Plug-In . SVG Version: 6.00 Build 0)  -->
<svg version="1.1" id="Layer_1" xmlns="http://www.w3.org/2000/svg" xmlns:xlink="http://www.w3.org/1999/xlink" x="0px" y="0px"
	 viewBox="0 0 250 50" style="enable-background:new 0 0 250 50;" xml:space="preserve">
<style type="text/css">
	.st0{fill:#FCBD4D;}
	.st1{fill:#8DD7F7;}
	.st2{fill:#C85248;}
	.st3{fill:#F38BA7;}
	.st4{fill:#BE1E2D;}
</style>
<g>
	<path class="st0" d="M57.1,8.1v33.6c0,1-0.8,1.9-1.8,2l-28.3,4.1h0C26.6,48,26,48,25.5,48c-0.2,0-0.4-0.2-0.4-0.4L24.6,9.7
		c0-0.2,0.1-0.4,0.3-0.4l31.2-2.9c0.1,0,0.2,0,0.3,0.1C56.9,7,57.1,7.5,57.1,8.1z"/>
	<path class="st1" d="M25.1,47.3c0,0.4-0.3,0.6-0.7,0.6c-0.4-0.1-0.8-0.1-1.2-0.3L2.4,41.8c-0.9-0.2-1.5-1-1.5-1.9v0l0-2L0,6.4
		c0-0.6,0.2-1.2,0.7-1.6C0.8,4.7,1,4.7,1.2,4.7l22.9,4.6c0.3,0.1,0.5,0.3,0.5,0.6L25.1,47.3z"/>
	<path class="st2" d="M56.8,7L24.7,9.4c-0.1,0-0.2,0-0.2,0l-24-4.3c0.2-0.2,0.5-0.8,1.4-0.8h0l28-2.3C30,2,30,2,30.1,2l0.1,0l0.2,0
		h0l25,4.1h0C55.8,6.2,56.4,6.4,56.8,7z"/>
	<path class="st3" d="M12.5,19.3c0,0-1.8-5.4-5.4-4.8c-3.5,0.6-3.8,4.2-3.2,6.3c1.4,5.5,8,14.3,8,14.3s8.8-7.1,9.2-11.5
		c0.5-4.4-2.2-6.3-3.5-6.7C14.2,15.5,12.5,19.3,12.5,19.3z"/>
	<path class="st4" d="M51.3,27.7c-1.9-1.5-5-1.4-5-1.4s4.3-1.7,5.3-4.7c0.5-1.7-0.1-4.2-3.4-2.9c-1.8,0.7-3.9,4.2-4,4.5
		c0.1-0.3,1-3.8,0.1-6.5c-0.9-2.6-4-1.8-4.6,0.8s0.8,6.5,0.8,6.5s-3.3-3.4-6.1-2.4c-2.9,1-2.4,4.2-0.7,5c1.4,0.7,4.9,1.2,4.9,1.2
		s-4.6,2-5.4,4.5c-0.8,2.6,1,4.4,3.4,3.1c2.4-1.3,4-4.4,4-4.4s-0.8,4,0,6.1c0.7,2.2,3.4,3.3,4.7-0.4c0.8-2.4-0.7-6.5-0.7-6.5
		s2.4,2.8,5,2.7C52.1,32.8,53.5,29.6,51.3,27.7z M44.8,27.8c-0.4,1.7-1.8,2.8-3,2.5c-1.2-0.3-1.8-1.9-1.4-3.6s1.8-2.8,3-2.5
		C44.6,24.5,45.2,26.2,44.8,27.8z"/>
	<polygon class="st1" points="22.7,3.9 23,4.8 17.7,5.5 24.4,5.7 26.7,6.7 30.3,5.7 37.5,5.7 33.3,4.8 34.9,3.9 28.5,4.3 	"/>
</g>
</svg>
