<svg width="51" height="44" viewBox="0 0 51 44" fill="none" xmlns="http://www.w3.org/2000/svg">
<g clip-path="url(#clip0_233_1229)">
<path d="M46.466 13.5461H44.1951H44.1845H43.1811L29.4292 0.360386C28.9644 -0.0861259 28.1617 -0.122576 27.6441 0.278373C27.1266 0.679323 27.0844 1.37187 27.5491 1.81838L39.7801 13.5461H11.2727L23.4615 1.81838C23.9263 1.37187 23.884 0.679323 23.3665 0.278373C22.8489 -0.122576 22.0462 -0.0861259 21.5814 0.360386L7.86116 13.5461H6.84719H4.53406C3.83696 13.5461 3.2666 14.0382 3.2666 14.6396C3.2666 15.2411 3.83696 15.7331 4.53406 15.7331H5.83322L9.48773 30.4316C10.0687 32.9557 12.6564 34.7873 15.6455 34.7873H29.4925C30.1896 34.7873 30.76 34.2953 30.76 33.6938C30.76 33.0924 30.1896 32.6003 29.4925 32.6003H15.6455C13.8605 32.6003 12.3184 31.5068 11.9699 29.9942C11.9699 29.9851 11.9699 29.9851 11.9699 29.9759L8.43152 15.7331H42.6425L41.1849 21.8932C41.0476 22.4855 41.4912 23.0596 42.1777 23.1872C42.2622 23.2054 42.3467 23.2054 42.4312 23.2054C43.0227 23.2054 43.5508 22.85 43.667 22.3306L45.2302 15.7331H46.466C47.1631 15.7331 47.7334 15.2411 47.7334 14.6396C47.7334 14.0382 47.1631 13.5461 46.466 13.5461Z" fill="white"/>
<path d="M40.1709 32.5457H36.8649C35.5658 32.5457 34.5095 31.6344 34.5095 30.5136C34.5095 29.3928 35.5658 28.4815 36.8649 28.4815H42.6847C43.3818 28.4815 43.9521 27.9895 43.9521 27.388C43.9521 26.7866 43.3818 26.2945 42.6847 26.2945H39.7801V24.4083C39.7801 23.8068 39.2097 23.3148 38.5126 23.3148C37.8155 23.3148 37.2451 23.8068 37.2451 24.4083V26.2945H36.8649C34.1715 26.2945 31.9746 28.1899 31.9746 30.5136C31.9746 32.8373 34.1715 34.7327 36.8649 34.7327H40.1709C41.47 34.7327 42.5262 35.6439 42.5262 36.7648C42.5262 37.8856 41.47 38.7968 40.1709 38.7968H34.2349C33.5378 38.7968 32.9675 39.2889 32.9675 39.8903C32.9675 40.4918 33.5378 40.9838 34.2349 40.9838H37.2451V42.9066C37.2451 43.508 37.8155 44.0001 38.5126 44.0001C39.2097 44.0001 39.7801 43.508 39.7801 42.9066V40.9838H40.192C40.2025 40.9838 40.2131 40.9838 40.2237 40.9838C42.8853 40.9565 45.04 39.0702 45.04 36.7648C45.0506 34.432 42.8642 32.5457 40.1709 32.5457Z" fill="white"/>
</g>
<defs>
<clipPath id="clip0_233_1229">
<rect width="51" height="44" fill="white"/>
</clipPath>
</defs>
</svg>
