<?xml version="1.0" encoding="utf-8"?>
<!-- Generator: Adobe Illustrator 23.0.1, SVG Export Plug-In . SVG Version: 6.00 Build 0)  -->
<svg version="1.1" id="Layer_1" xmlns="http://www.w3.org/2000/svg" xmlns:xlink="http://www.w3.org/1999/xlink" x="0px" y="0px"
	 viewBox="0 0 32 32" style="enable-background:new 0 0 32 32;" xml:space="preserve">
<style type="text/css">
	.st0{fill:#FCBD4D;}
	.st1{fill:#8DD7F7;}
	.st2{fill:#C85248;}
	.st3{fill:#F38BA7;}
	.st4{fill:#BE1E2D;}
</style>
<g>
	<path class="st0" d="M32,6.6v18.8c0,0.6-0.4,1-1,1.1l-15.8,2.3h0c-0.3,0-0.6,0.1-0.9,0.1c-0.1,0-0.2-0.1-0.2-0.2L13.8,7.5
		c0-0.1,0.1-0.2,0.2-0.2l17.5-1.6c0.1,0,0.1,0,0.2,0C31.8,5.9,32,6.2,32,6.6z"/>
	<path class="st1" d="M14.1,28.5c0,0.2-0.2,0.4-0.4,0.3c-0.2,0-0.4-0.1-0.7-0.1L1.3,25.4c-0.5-0.1-0.8-0.6-0.8-1.1v0l0-1.1L0,5.6
		c0-0.3,0.1-0.7,0.4-0.9c0.1-0.1,0.2-0.1,0.3-0.1l12.8,2.6c0.2,0,0.3,0.2,0.3,0.3L14.1,28.5z"/>
	<path class="st2" d="M31.8,5.9l-18,1.4c0,0-0.1,0-0.1,0L0.2,4.9C0.3,4.7,0.5,4.4,1,4.4h0l15.7-1.3c0,0,0.1,0,0.1,0l0,0l0.1,0h0
		l14,2.3h0C31.2,5.5,31.6,5.6,31.8,5.9z"/>
	<path class="st3" d="M7,12.8c0,0-1-3-3-2.7c-2,0.3-2.1,2.3-1.8,3.5c0.8,3.1,4.5,8,4.5,8s4.9-4,5.2-6.5c0.3-2.5-1.3-3.5-1.9-3.8
		C7.9,10.7,7,12.8,7,12.8z"/>
	<path class="st4" d="M28.7,17.5c-1-0.8-2.8-0.8-2.8-0.8s2.4-1,2.9-2.6c0.3-1-0.1-2.4-1.9-1.6c-1,0.4-2.2,2.3-2.3,2.5
		c0-0.2,0.6-2.1,0.1-3.7c-0.5-1.5-2.3-1-2.6,0.4s0.4,3.6,0.4,3.6s-1.9-1.9-3.4-1.4c-1.6,0.6-1.3,2.3-0.4,2.8
		c0.8,0.4,2.7,0.7,2.7,0.7s-2.6,1.1-3,2.5c-0.4,1.4,0.5,2.4,1.9,1.7c1.3-0.7,2.2-2.5,2.2-2.5s-0.4,2.2,0,3.4
		c0.4,1.2,1.9,1.8,2.6-0.2c0.4-1.3-0.4-3.6-0.4-3.6s1.3,1.5,2.8,1.5C29.2,20.4,30,18.6,28.7,17.5z M25.1,17.6
		c-0.2,0.9-1,1.6-1.7,1.4c-0.7-0.2-1-1.1-0.8-2c0.2-0.9,1-1.6,1.7-1.4C25,15.7,25.3,16.6,25.1,17.6z"/>
	<polygon class="st1" points="12.7,4.2 12.9,4.7 9.9,5.1 13.7,5.2 15,5.7 17,5.2 21,5.2 18.6,4.7 19.6,4.2 16,4.4 	"/>
</g>
</svg>
